<svg xmlns="http://www.w3.org/2000/svg" xmlns:xlink="http://www.w3.org/1999/xlink" width="160" height="150" viewBox="0 0 160 150">
    <defs>
        <path id="a" d="M.196.073H159.84v149.924H.196z"/>
    </defs>
    <g fill="none" fill-rule="evenodd">
        <path fill="#FFF" d="M22.955 53a62.349 62.349 0 0 1 5.207-5.954c-3.813-2.414-6.37-6.657-6.37-11.537 0-7.528 6.065-13.648 13.526-13.648 6.672 0 12.194 4.907 13.31 11.322a70.625 70.625 0 0 1 7.372-2.8C53.708 21.002 45.323 14 35.318 14 23.565 14 14 23.65 14 35.509c0 7.22 3.547 13.595 8.955 17.491z"/>
        <g>
            <mask id="b" fill="#fff">
                <use xlink:href="#a"/>
            </mask>
            <path fill="#FFF" d="M124.454 22.212c7.501 0 13.6 6.091 13.6 13.582 0 4.944-2.689 9.245-6.647 11.621a57.455 57.455 0 0 1 5.233 5.964c5.578-3.864 9.245-10.3 9.245-17.572 0-11.814-9.614-21.404-21.431-21.404-10.1 0-18.57 7.009-20.822 16.403a74.44 74.44 0 0 1 7.423 2.826c1.06-6.462 6.638-11.42 13.399-11.42z" mask="url(#b)"/>
            <path fill="#FFF" d="M4.815 84.265c0 36.242 33.731 65.732 75.208 65.732s75.208-29.49 75.208-65.732c0-8.278-1.73-16.338-5.17-23.969 6.253-6.611 9.78-15.387 9.78-24.502 0-19.698-16.046-35.721-35.769-35.721-13.525 0-25.672 7.49-31.785 19.33a86.495 86.495 0 0 0-24.717.023C61.467 7.576 49.308.073 35.772.073 16.046.073 0 16.096 0 35.793c0 9.194 3.58 18.019 9.92 24.643-3.387 7.592-5.105 15.603-5.105 23.83zm3.002-48.471c0-15.388 12.545-27.915 27.955-27.915 11.397 0 21.558 6.817 25.875 17.37l1.196 2.927 3.12-.56c9.183-1.692 18.784-1.692 27.941-.039l3.107.56 1.197-2.923c4.329-10.531 14.477-17.335 25.864-17.335 15.407 0 27.952 12.527 27.952 27.915 0 7.884-3.4 15.45-9.311 20.752l-2.227 1.996 1.35 2.67c2.318 4.566 3.922 9.322 4.789 14.192.57 2.989.864 6.039.864 9.167 0 15.883-7.602 30.265-19.876 40.666-12.202 10.466-29.037 16.937-47.59 16.937-13.04 0-25.216-3.203-35.54-8.734-19.283-10.11-32.13-28.217-32.13-48.869 0-8.366 2.125-16.302 5.91-23.46l1.232-2.468-2.24-1.996c-5.998-5.303-9.438-12.907-9.438-20.853z" mask="url(#b)"/>
        </g>
        <path fill="#FFF" d="M32 103.505C32 121.98 53.765 137 80.5 137c26.745 0 48.5-15.02 48.5-33.495C129 85.033 107.245 70 80.5 70 53.765 70 32 85.033 32 103.505zm48.5-3.927c-6.144 0-10.895-2.941-10.895-5.463 0-2.519 4.75-5.463 10.895-5.463 6.144 0 10.895 2.944 10.895 5.463 0 2.522-4.75 5.463-10.895 5.463zm0-21.711c22.416 0 40.642 11.502 40.642 25.638 0 13.307-16.143 24.259-36.721 25.51v-21.862c8.57-1.254 14.829-6.524 14.829-13.038 0-7.47-8.237-13.317-18.75-13.317s-18.753 5.846-18.753 13.317c0 6.514 6.258 11.784 14.83 13.038v21.862c-20.576-1.251-36.723-12.203-36.723-25.51 0-14.136 18.227-25.638 40.646-25.638zM50.999 61c-6.665 0-6.665 10 0 10 6.662 0 6.675-10 0-10zM108.999 71c6.668 0 6.668-10 0-10-6.665 0-6.665 10 0 10z"/>
    </g>
</svg>
