<svg xmlns="http://www.w3.org/2000/svg" width="150" height="149" viewBox="0 0 150 149">
    <path fill="#B0B0B0" fill-rule="evenodd" d="M21.9 21.815c-29.201 29.06-29.201 76.337.007 105.396 29.193 29.053 76.717 29.053 105.915-.007 29.208-29.052 29.201-76.329.008-105.382C98.624-7.238 51.1-7.238 21.9 21.815zm97.754 97.261c-24.692 24.576-64.887 24.576-89.579.007-24.705-24.574-24.698-64.566 0-89.14 24.692-24.568 64.88-24.568 89.586.006 24.699 24.568 24.693 64.56-.007 89.127zm-10.926-15.109a4.21 4.21 0 0 1-2.205 5.542 4.237 4.237 0 0 1-5.57-2.195c-4.089-9.395-13.738-15.465-24.596-15.465-11.106 0-20.819 6.07-24.733 15.458a4.252 4.252 0 0 1-3.916 2.6 4.213 4.213 0 0 1-1.62-.323c-2.165-.897-3.185-3.36-2.288-5.506 5.239-12.552 18.019-20.659 32.564-20.659 14.236 0 26.94 8.066 32.364 20.548zM41.835 52.933a3.429 3.429 0 0 1 1.275-4.706l12.774-7.297a3.472 3.472 0 0 1 4.728 1.275 3.43 3.43 0 0 1-1.274 4.705l-12.773 7.298a3.474 3.474 0 0 1-4.73-1.275zm19.811.15a6.044 6.044 0 0 1 0 8.587 6.127 6.127 0 0 1-8.636 0 6.057 6.057 0 0 1 0-8.586 6.127 6.127 0 0 1 8.636 0zm20.757-20.625a3.458 3.458 0 0 1 3.757-3.127l14.67 1.31a3.453 3.453 0 0 1 3.142 3.745 3.46 3.46 0 0 1-3.764 3.127l-14.663-1.317a3.444 3.444 0 0 1-3.142-3.738zM98.064 52.98a6.06 6.06 0 0 1 0 8.588c-2.39 2.372-6.26 2.372-8.636.005a6.053 6.053 0 0 1 0-8.593 6.127 6.127 0 0 1 8.636 0z"/>
</svg>
